#!OML:ASF H:\Terrain\Patient Classification 1\Animal2\Wednesday\Animal2.ASF
:FULLY-SPECIFIED
:DEGREES
1011
root 10.4895 17.7211 -22.6757 0.99864 7.58285 -363.456
lowerback 4.75771 -2.52715 2.11465
upperback -5.73223 -3.20957 -0.032219
thorax -8.83427 -1.70497 -0.8186
lowerneck -0.317809 1.02837 11.6892
upperneck 11.5465 3.3727 -23.1382
head 3.92118 1.20253 -9.31534
rclavicle 3.51849e-014 7.15625e-015
rhumerus -35.9465 3.90448 -90.7554
rradius 17.2618
rwrist 18.14
rhand -22.9916 5.88403
rfingers 7.12502
rthumb 3.45119 -24.0678
lclavicle 3.51849e-014 7.15625e-015
lhumerus -47.2949 -36.7058 101.433
lradius 47.7353
lwrist 48.5913
lhand -33.4125 50.704
lfingers 7.12502
lthumb -6.61245 80.5807
rfemur -10.4683 -18.549 26.1517
rtibia 23.1057
rfoot -19.209 -14.7495
rtoes -3.67138
lfemur -3.20027 5.73447 -12.4179
ltibia 25.8486
lfoot -22.8549 12.6995
ltoes -9.33555
1012
root 10.445 17.7152 -22.6315 0.866473 7.20069 -363.739
lowerback 4.8416 -2.40843 2.56551
upperback -5.66581 -3.00958 -0.0519062
thorax -8.83218 -1.63641 -1.11419
lowerneck -0.634274 1.11605 11.7263
upperneck 11.8441 3.51152 -23.024
head 4.09109 1.24755 -9.28552
rclavicle 4.45278e-014 -1.03368e-014
rhumerus -35.9052 4.73675 -91.4065
rradius 18.0358
rwrist 16.6226
rhand -22.7211 4.958
rfingers 7.12502
rthumb 3.71247 -24.9894
lclavicle 4.45278e-014 -1.03368e-014
lhumerus -48.393 -37.033 101.918
lradius 47.2331
lwrist 48.7658
lhand -33.0081 50.8232
lfingers 7.12502
lthumb -6.22199 80.7118
rfemur -10.1008 -18.6034 26.5534
rtibia 22.9126
rfoot -19.3402 -14.5122
rtoes 2.14128
lfemur -3.47528 6.79907 -11.9817
ltibia 26.6953
lfoot -23.0125 12.873
ltoes -10.4363
1013
root 10.3965 17.7125 -22.5898 0.638903 6.77703 -363.953
lowerback 5.09976 -2.28191 2.82691
upperback -5.6435 -2.80745 -0.0410132
thorax -8.96564 -1.55448 -1.26459
lowerneck -0.733398 1.18259 11.6692
upperneck 12.0704 3.62909 -22.9256
head 4.19559 1.29268 -9.24204
rclavicle -2.49475e-014 5.1684e-015
rhumerus -36.0088 5.58399 -91.9402
rradius 18.8043
rwrist 15.533
rhand -22.5952 4.93182
rfingers 7.12502
rthumb 3.83406 -25.0134
lclavicle -2.49475e-014 5.1684e-015
lhumerus -49.6229 -37.275 102.531
lradius 46.8147
lwrist 48.8312
lhand -32.6466 50.2683
lfingers 7.12502
lthumb -5.87299 80.1669
rfemur -9.53143 -18.4334 26.8721
rtibia 22.5425
rfoot -19.4389 -14.375
rtoes 7.80439
lfemur -3.70327 7.79742 -11.6444
ltibia 27.5153
lfoot -23.3018 13.1606
ltoes -12.67
1014
root 10.3498 17.7143 -22.5513 0.471348 6.44734 -364.059
lowerback 5.4453 -2.2245 2.99045
upperback -5.73595 -2.70531 -0.0716431
thorax -9.27771 -1.51968 -1.386
lowerneck -0.65942 1.21384 11.8268
upperneck 12.2281 3.71167 -23.0449
head 4.24688 1.33364 -9.31804
rclavicle -3.38928e-014 -2.38542e-015
rhumerus -36.1517 6.23192 -92.4063
rradius 19.4043
rwrist 14.8518
rhand -22.3026 5.00875
rfingers 7.12502
rthumb 4.11659 -24.9312
lclavicle -3.38928e-014 -2.38542e-015
lhumerus -51.2469 -37.5081 103.379
lradius 46.7119
lwrist 48.8152
lhand -33.0118 50.4987
lfingers 7.12502
lthumb -6.22561 80.3873
rfemur -8.9882 -18.3148 27.0849
rtibia 22.1155
rfoot -19.4927 -14.1687
rtoes 9.33093
lfemur -4.06473 8.69781 -11.4843
ltibia 28.2216
lfoot -23.8146 12.7382
ltoes -13.7493
1015
root 10.31 17.7216 -22.5026 0.404154 6.2798 -364.06
lowerback 5.56984 -2.15717 3.16395
upperback -5.77525 -2.60148 -0.172788
thorax -9.40438 -1.48639 -1.59913
lowerneck -0.729198 1.199 11.9097
upperneck 12.3355 3.7014 -23.0536
head 4.29 1.32415 -9.3412
rclavicle 3.97569e-016 7.15625e-015
rhumerus -36.1545 6.8157 -92.8562
rradius 19.9988
rwrist 14.0359
rhand -22.0981 4.84885
rfingers 7.12502
rthumb 4.31405 -25.0872
lclavicle 3.97569e-016 7.15625e-015
lhumerus -52.836 -38.0176 104.386
lradius 46.5946
lwrist 48.5248
lhand -33.2446 51.596
lfingers 7.12502
lthumb -6.45034 81.4778
rfemur -8.53576 -18.2647 27.18
rtibia 21.763
rfoot -19.628 -14.0482
rtoes 8.38521
lfemur -4.524 9.36513 -11.5211
ltibia 28.7596
lfoot -24.1648 11.8983
ltoes -12.9363
1016
root 10.2724 17.7276 -22.4513 0.437295 6.15423 -363.84
lowerback 5.45531 -2.0899 3.14601
upperback -5.71405 -2.53304 -0.362254
thorax -9.27369 -1.45774 -1.80547
lowerneck -0.785183 1.22245 12.006
upperneck 12.2477 3.69921 -22.9529
head 4.27474 1.33193 -9.31977
rclavicle -9.34288e-015 -1.55052e-014
rhumerus -35.9459 7.32002 -93.2735
rradius 20.5871
rwrist 13.6241
rhand -22.0005 4.66289
rfingers 7.12502
rthumb 4.4083 -25.2712
lclavicle -9.34288e-015 -1.55052e-014
lhumerus -54.0384 -38.5465 105.07
lradius 46.4083
lwrist 48.3581
lhand -33.3541 52.2206
lfingers 7.12502
lthumb -6.55601 82.0991
rfemur -8.20159 -17.9515 27.0702
rtibia 21.481
rfoot -19.6424 -14.294
rtoes 6.49572
lfemur -5.04992 9.7538 -11.918
ltibia 29.1633
lfoot -24.4051 11.6243
ltoes -13.3097
1017
root 10.2346 17.7347 -22.4062 0.686895 5.9409 -363.538
lowerback 5.24115 -2.08065 3.02225
upperback -5.77497 -2.55457 -0.551029
thorax -9.21805 -1.46826 -1.93984
lowerneck -0.624218 1.32489 12.0477
upperneck 12.0983 3.80712 -22.7751
head 4.2216 1.40844 -9.25403
rclavicle -4.14466e-014 -3.06128e-014
rhumerus -35.891 8.11397 -93.8533
rradius 21.2186
rwrist 13.3258
rhand -22.0829 4.47476
rfingers 7.12502
rthumb 4.32874 -25.461
lclavicle -4.14466e-014 -3.06128e-014
lhumerus -55.3001 -38.663 105.484
lradius 46.5183
lwrist 48.7007
lhand -33.6001 52.0548
lfingers 7.12502
lthumb -6.79352 81.9258
rfemur -8.1849 -17.4407 26.9539
rtibia 21.304
rfoot -19.6203 -14.5914
rtoes 5.40363
lfemur -5.7744 9.87087 -12.5602
ltibia 29.4286
lfoot -24.6814 11.8955
ltoes -14.7426
1018
root 10.1971 17.7469 -22.3574 1.03437 5.64917 -363.364
lowerback 4.88389 -2.02207 2.95532
upperback -5.90612 -2.50011 -0.65174
thorax -9.1484 -1.44289 -2.02608
lowerneck -0.468043 1.39411 11.9428
upperneck 12.1076 3.899 -22.5749
head 4.20966 1.46531 -9.15869
rclavicle 9.54166e-015 -2.78299e-015
rhumerus -36.004 9.1488 -94.4168
rradius 21.8645
rwrist 12.6378
rhand -22.2185 4.33216
rfingers 7.12502
rthumb 4.19779 -25.6062
lclavicle 9.54166e-015 -2.78299e-015
lhumerus -56.6615 -38.6751 106.005
lradius 46.8116
lwrist 49.146
lhand -33.7615 51.886
lfingers 7.12502
lthumb -6.94932 81.752
rfemur -8.37945 -17.1193 26.9877
rtibia 21.2886
rfoot -19.8492 -14.5493
rtoes 4.3893
lfemur -6.56185 9.83475 -13.1462
ltibia 29.5525
lfoot -24.8838 12.2006
ltoes -14.7382
1019
root 10.161 17.7595 -22.3068 1.2817 5.41237 -362.961
lowerback 4.58367 -1.93331 2.67846
upperback -5.98456 -2.4305 -0.864262
thorax -9.0483 -1.39942 -2.11395
lowerneck -0.369823 1.37315 12.0853
upperneck 12.0827 3.87066 -22.6141
head 4.18161 1.46263 -9.20069
rclavicle -1.91827e-014 -7.95139e-015
rhumerus -35.996 9.55435 -94.7133
rradius 22.3684
rwrist 12.3543
rhand -22.0342 4.21586
rfingers 7.12502
rthumb 4.37576 -25.7189
lclavicle -1.91827e-014 -7.95139e-015
lhumerus -57.9828 -38.9379 106.556
lradius 46.941
lwrist 49.1502
lhand -33.4835 52.0042
lfingers 7.12502
lthumb -6.68097 81.8788
rfemur -8.44422 -16.7854 26.719
rtibia 21.3259
rfoot -20.1242 -14.5876
rtoes 4.43273
lfemur -7.21866 9.72188 -14.0032
ltibia 29.6359
lfoot -25.2127 12.6946
ltoes -14.669
1020
root 10.1264 17.7687 -22.2604 1.384 5.34338 -362.294
lowerback 4.58436 -1.90624 2.16785
upperback -6.03739 -2.4635 -1.16458
thorax -9.09773 -1.39462 -2.14154
lowerneck -0.42155 1.33908 12.2701
upperneck 12.1096 3.82764 -22.7256
head 4.19447 1.4413 -9.27878
rclavicle -1.3418e-014 -6.36111e-015
rhumerus -35.8033 9.38255 -94.7715
rradius 22.6049
rwrist 12.5046
rhand -21.955 4.20253
rfingers 7.12502
rthumb 4.45224 -25.7307
lclavicle -1.3418e-014 -6.36111e-015
lhumerus -59.2338 -39.1587 107.059
lradius 47.0048
lwrist 49.1173
lhand -33.3196 52.3143
lfingers 7.12502
lthumb -6.52278 82.1938
rfemur -8.28589 -16.3569 26.1084
rtibia 21.3331
rfoot -20.3461 -14.8781
rtoes 5.92594
lfemur -7.7954 9.56722 -15.149
ltibia 29.7438
lfoot -25.3769 13.0932
ltoes -15.0752
1021
root 10.0929 17.7741 -22.2114 1.44749 5.40439 -361.893
lowerback 4.57779 -1.90678 1.88223
upperback -6.06888 -2.50322 -1.33095
thorax -9.12482 -1.40211 -2.15275
lowerneck -0.588321 1.37197 12.1712
upperneck 12.2959 3.87816 -22.5637
head 4.28555 1.45247 -9.205
rclavicle 8.94531e-016 1.19271e-014
rhumerus -35.5114 9.15282 -94.6399
rradius 22.6319
rwrist 12.4707
rhand -22.1629 4.51118
rfingers 7.12502
rthumb 4.25149 -25.4261
lclavicle 8.94531e-016 1.19271e-014
lhumerus -60.2829 -39.2286 107.502
lradius 47.1367
lwrist 49.2825
lhand -33.2485 52.7274
lfingers 7.12502
lthumb -6.45414 82.6091
rfemur -8.11641 -16.0819 25.7847
rtibia 21.3615
rfoot -20.5402 -15.1022
rtoes 7.45765
lfemur -8.4093 9.56959 -15.9659
ltibia 29.8491
lfoot -25.087 13.0918
ltoes -15.0051
1022
root 10.0589 17.7789 -22.1639 1.57273 5.42885 -361.703
lowerback 4.47427 -1.89931 1.74796
upperback -6.14489 -2.51243 -1.40238
thorax -9.14438 -1.40151 -2.15429
lowerneck -0.659167 1.39924 12.0274
upperneck 12.4736 3.92587 -22.3792
head 4.35506 1.46701 -9.11477
rclavicle -7.85199e-015 -7.95139e-015
rhumerus -35.4098 9.03094 -94.4647
rradius 22.8923
rwrist 12.3046
rhand -21.8384 4.45556
rfingers 7.12502
rthumb 4.5648 -25.4753
lclavicle -7.85199e-015 -7.95139e-015
lhumerus -61.4538 -39.3904 108.144
lradius 47.44
lwrist 49.9321
lhand -33.7017 53.0311
lfingers 7.12502
lthumb -6.89162 82.8989
rfemur -8.02252 -15.7688 25.7239
rtibia 21.3237
rfoot -20.5748 -15.3812
rtoes 8.8068
lfemur -9.14316 9.63207 -16.5674
ltibia 30.0102
lfoot -24.9379 13.3783
ltoes -16.1693
1023
root 10.027 17.7877 -22.117 1.79109 5.399 -361.322
lowerback 4.29675 -1.83774 1.45101
upperback -6.19372 -2.46937 -1.55391
thorax -9.08325 -1.36679 -2.15877
lowerneck -0.872998 1.35422 11.993
upperneck 12.6153 3.87188 -22.3807
head 4.42463 1.42208 -9.11536
rclavicle -1.98785e-015 1.51076e-014
rhumerus -35.3597 9.02805 -94.3464
rradius 23.4281
rwrist 12.0625
rhand -21.1674 3.79368
rfingers 7.12502
rthumb 5.21268 -26.1222
lclavicle -1.98785e-015 1.51076e-014
lhumerus -62.5235 -39.7337 108.798
lradius 47.9398
lwrist 50.9362
lhand -34.7144 53.0069
lfingers 7.12502
lthumb -7.86915 82.8404
rfemur -7.93503 -15.4387 25.4612
rtibia 21.1375
rfoot -20.6938 -15.7008
rtoes 8.72087
lfemur -10.0008 9.67791 -17.4413
ltibia 30.2665
lfoot -25.0426 13.7021
ltoes -17.7112
